<?xml version="1.0" encoding="UTF-8" standalone="no"?>
<!DOCTYPE svg PUBLIC "-//W3C//DTD SVG 1.1//EN"
 "http://www.w3.org/Graphics/SVG/1.1/DTD/svg11.dtd">
<!-- Generated by graphviz version 2.50.0 (20211204.2007)
 -->
<!-- Title: TreeNode Pages: 1 -->
<svg width="122pt" height="187pt"
 viewBox="0.00 0.00 122.00 187.00" xmlns="http://www.w3.org/2000/svg" xmlns:xlink="http://www.w3.org/1999/xlink">
<g id="graph0" class="graph" transform="scale(1 1) rotate(0) translate(4 183)">
<title>TreeNode</title>
<polygon fill="white" stroke="transparent" points="-4,4 -4,-183 118,-183 118,4 -4,4"/>
<!-- Node1 -->
<g id="node1" class="node">
<title>Node1</title>
<g id="a_node1"><a xlink:title=" ">
<polygon fill="#bfbfbf" stroke="black" points="18,-7 18,-26 77,-26 77,-7 18,-7"/>
<text text-anchor="middle" x="47.5" y="-14" font-family="Helvetica,sans-Serif" font-size="10.00">TreeNode</text>
</a>
</g>
</g>
<!-- Node1&#45;&gt;Node1 -->
<g id="edge3" class="edge">
<title>Node1&#45;&gt;Node1</title>
<path fill="none" stroke="#9a32cd" stroke-dasharray="5,2" d="M87.17,-23.59C91.91,-22.3 95,-19.94 95,-16.5 95,-11 87.08,-8.25 77.19,-8.25"/>
<polygon fill="#9a32cd" stroke="#9a32cd" points="86.72,-20.12 77.19,-24.75 87.52,-27.07 86.72,-20.12"/>
<text text-anchor="middle" x="104.5" y="-25" font-family="Helvetica,sans-Serif" font-size="10.00"> left</text>
<text text-anchor="middle" x="104.5" y="-14" font-family="Helvetica,sans-Serif" font-size="10.00">right</text>
<text text-anchor="middle" x="104.5" y="-3" font-family="Helvetica,sans-Serif" font-size="10.00">root</text>
</g>
<!-- Node2 -->
<g id="node2" class="node">
<title>Node2</title>
<g id="a_node2"><a target="_blank" xlink:href="http://en.cppreference.com/w/cpp/string/basic_string" xlink:title=" ">
<polygon fill="white" stroke="black" points="17.5,-91.5 17.5,-110.5 77.5,-110.5 77.5,-91.5 17.5,-91.5"/>
<text text-anchor="middle" x="47.5" y="-98.5" font-family="Helvetica,sans-Serif" font-size="10.00">std::string</text>
</a>
</g>
</g>
<!-- Node2&#45;&gt;Node1 -->
<g id="edge1" class="edge">
<title>Node2&#45;&gt;Node1</title>
<path fill="none" stroke="#9a32cd" stroke-dasharray="5,2" d="M47.5,-81.43C47.5,-64.13 47.5,-39.11 47.5,-26.1"/>
<polygon fill="#9a32cd" stroke="#9a32cd" points="44,-81.48 47.5,-91.48 51,-81.48 44,-81.48"/>
<text text-anchor="middle" x="61" y="-65" font-family="Helvetica,sans-Serif" font-size="10.00"> ID</text>
<text text-anchor="middle" x="61" y="-54" font-family="Helvetica,sans-Serif" font-size="10.00">Name</text>
</g>
<!-- Node3 -->
<g id="node3" class="node">
<title>Node3</title>
<g id="a_node3"><a target="_blank" xlink:href="http://en.cppreference.com/w/cpp/string/basic_string" xlink:title=" ">
<polygon fill="white" stroke="black" points="0,-148.5 0,-178.5 95,-178.5 95,-148.5 0,-148.5"/>
<text text-anchor="start" x="8" y="-166.5" font-family="Helvetica,sans-Serif" font-size="10.00">std::basic_string&lt;</text>
<text text-anchor="middle" x="47.5" y="-155.5" font-family="Helvetica,sans-Serif" font-size="10.00"> char &gt;</text>
</a>
</g>
</g>
<!-- Node3&#45;&gt;Node2 -->
<g id="edge2" class="edge">
<title>Node3&#45;&gt;Node2</title>
<path fill="none" stroke="midnightblue" d="M47.5,-138.35C47.5,-128.51 47.5,-117.78 47.5,-110.54"/>
<polygon fill="midnightblue" stroke="midnightblue" points="44,-138.47 47.5,-148.47 51,-138.47 44,-138.47"/>
</g>
</g>
</svg>
